<svg width="224" height="35" viewBox="0 0 224 35" fill="none" xmlns="http://www.w3.org/2000/svg">
<g clip-path="url(#clip0_204_60)">
<path fill-rule="evenodd" clip-rule="evenodd" d="M4.07018 26.4315L6.35088 10.9647H3.78947V10.0207C4.25731 9.7545 4.75439 9.5185 5.2807 9.31276C5.56441 9.20137 5.85132 9.09893 6.14105 9.0056C6.34968 8.93861 6.56005 8.87759 6.77193 8.82262L7.01754 7.55187C7.12402 7.01982 7.25387 6.49306 7.40667 5.97324C7.5655 5.43783 7.74304 4.94611 7.9393 4.49808C8.03846 4.27107 8.1465 4.04832 8.26316 3.8304C8.49513 3.39381 8.76203 2.9781 9.06105 2.58761C9.36748 2.18668 9.7179 1.82395 10.1053 1.50674C10.807 0.937934 11.5789 0.544608 12.4211 0.326765C13.0747 0.159941 13.7421 0.0573425 14.4144 0.0203339C14.6503 0.0066483 14.8865 -0.000131729 15.1228 1.93822e-06C15.4274 1.93822e-06 15.7764 0.0283214 16.1698 0.0849604C16.2948 0.103107 16.4195 0.123199 16.5439 0.14523C16.7549 0.181753 16.964 0.229132 17.1705 0.287191C17.3789 0.346492 17.5709 0.415113 17.7463 0.493052C17.8083 0.520483 17.8695 0.549784 17.9298 0.580915C17.883 1.11342 17.7602 1.66408 17.5614 2.23289C17.3626 2.8017 17.0292 3.29184 16.5614 3.70332L13.8947 1.45228C13.6549 1.52088 13.4171 1.59703 13.1818 1.68066C13.0321 1.73394 12.8838 1.79096 12.7368 1.85166C12.425 1.98067 12.127 2.21013 11.8428 2.54004C11.8066 2.58211 11.7713 2.62496 11.7368 2.66857C11.6104 2.83059 11.4954 3.0018 11.3926 3.18086C11.2855 3.36482 11.1806 3.56935 11.0779 3.79445C10.9938 3.97941 10.9152 4.16696 10.8421 4.35685C10.5743 5.04983 10.3171 5.98534 10.0705 7.16338C10.0586 7.22024 10.0468 7.27712 10.0351 7.33403L9.68421 9.14938H13.5789C13.6678 9.60903 13.6216 10.0688 13.4404 10.5287C13.3805 10.6794 13.3095 10.8252 13.2281 10.9647H9.33333L7.08772 25.7417C6.87368 27.1715 6.53825 28.4001 6.0814 29.4276C5.99127 29.6307 5.89389 29.8303 5.78947 30.0259C5.54366 30.4889 5.2744 30.9382 4.98281 31.3718C4.6862 31.8099 4.38082 32.2018 4.06667 32.5475C3.99333 32.6282 3.91846 32.7075 3.84211 32.7853C3.57799 33.0556 3.30017 33.3112 3.00982 33.551C2.60865 33.8802 2.21357 34.1453 1.82456 34.3465C1.16959 34.6853 0.666667 34.9032 0.315789 35L0 34.2012C0.253567 34.0701 0.554854 33.8451 0.90386 33.5263C0.942026 33.4914 0.979922 33.4562 1.01754 33.4206C1.4152 33.0455 1.80702 32.5432 2.19298 31.9139C2.37163 31.6205 2.53616 31.3182 2.68597 31.008C2.89158 30.5854 3.08982 30.1189 3.2807 29.6084C3.59836 28.7583 3.84936 27.7756 4.03368 26.6603C4.04624 26.5841 4.05841 26.5079 4.07018 26.4315ZM56.5965 26.1411L54.6667 19.5695C54.4094 19.86 54.1111 20.1746 53.7719 20.5135C53.4328 20.8524 53.0994 21.2033 52.7719 21.5664C52.4444 21.9295 52.1404 22.2925 51.8596 22.6556C51.6185 22.9676 51.4205 23.2617 51.2656 23.5379C51.2407 23.5822 51.2165 23.627 51.193 23.6722C51.1506 23.8252 51.1227 24.0375 51.1091 24.309C51.1076 24.3388 51.1064 24.3686 51.1053 24.3983C51.0936 24.713 51.0819 25.0458 51.0702 25.3968C51.0585 25.7478 51.0526 26.0745 51.0526 26.3771C51.0526 26.4478 51.0533 26.5184 51.0547 26.5891C51.058 26.7319 51.0647 26.8516 51.0747 26.9482C51.0781 26.9818 51.0825 27.0154 51.0877 27.0488C50.6901 27.2182 50.2865 27.3392 49.8772 27.4118C49.6061 27.4606 49.3326 27.4934 49.0579 27.5102C48.9393 27.5172 48.8205 27.5207 48.7018 27.5208C48.0327 27.5208 47.4604 27.4025 46.9846 27.166C46.9121 27.1301 46.8411 27.091 46.7719 27.0488C46.859 26.7556 46.9695 26.4704 47.1025 26.1963C47.3382 25.7027 47.6608 25.176 48.0702 24.6162C48.7251 23.7206 49.4503 22.8492 50.2456 22.0021C50.7232 21.4926 51.2112 20.9937 51.7095 20.5059C51.9896 20.2318 52.2736 19.962 52.5614 19.6966C53.1345 19.1684 53.5979 18.7432 53.9516 18.4207C54.0494 18.3315 54.1475 18.2424 54.2456 18.1535L51.8596 11.473L49.614 11.1826V10.2749C49.7544 10.1781 49.9591 10.051 50.2281 9.89367C50.4971 9.73634 50.8012 9.58506 51.1404 9.43984C51.4795 9.29461 51.8246 9.17358 52.1754 9.07677C52.4045 9.0127 52.6385 8.96909 52.8747 8.94642C52.9805 8.93656 53.0867 8.9316 53.193 8.93154C53.3308 8.93057 53.4684 8.94223 53.6042 8.96639C53.7532 8.99423 53.8857 9.0384 54.0018 9.09891C54.1212 9.16029 54.2279 9.24527 54.3158 9.34907C54.5445 9.62298 54.7285 9.9336 54.8607 10.2687C54.8663 10.2829 54.8718 10.297 54.8772 10.3112L56.5965 16.6286C57.1345 16.0719 57.7251 15.4426 58.3684 14.7407C59.0117 14.0387 59.4971 13.3731 59.8246 12.7438C59.8442 12.6022 59.8556 12.41 59.8586 12.1672C59.8593 12.1174 59.8596 12.0675 59.8597 12.0176C59.8595 11.7927 59.854 11.5677 59.8432 11.3431C59.838 11.235 59.8318 11.1271 59.8246 11.0192C59.8012 10.6682 59.7778 10.3415 59.7544 10.0389C59.7312 9.73901 59.7081 9.51644 59.6849 9.37122C59.6847 9.36988 59.6844 9.36855 59.6842 9.36722C60.0218 9.24324 60.3658 9.13912 60.7147 9.05534C60.763 9.0439 60.8113 9.03289 60.8596 9.02231C61.2456 8.93759 61.6374 8.89523 62.0351 8.89523C62.3786 8.89315 62.7212 8.93028 63.0568 9.00597C63.3859 9.08062 63.7033 9.2022 64 9.36722C63.9292 9.60792 63.8427 9.84337 63.7411 10.0719C63.6426 10.2956 63.5267 10.526 63.3933 10.7632C63.3622 10.8186 63.3305 10.8737 63.2982 10.9284C63.0533 11.3428 62.7874 11.7435 62.5014 12.1287C62.3839 12.2877 62.2635 12.4443 62.1404 12.5985C61.6959 13.1553 61.2222 13.7059 60.7193 14.2505C60.3859 14.6119 60.0485 14.9692 59.707 15.3223C59.5599 15.4743 59.412 15.6253 59.2632 15.7754C58.7953 16.2474 58.3567 16.671 57.9474 17.0462C57.538 17.4213 57.2164 17.7178 56.9825 17.9357L59.5088 25.0156L61.7895 25.306V26.2137C61.6821 26.2878 61.537 26.3761 61.354 26.4787C61.2947 26.5119 61.2352 26.5446 61.1754 26.5768C60.9064 26.722 60.614 26.8672 60.2982 27.0125C60.0333 27.1336 59.7606 27.2359 59.4821 27.3185C59.4152 27.3385 59.3481 27.3575 59.2807 27.3755C59.1139 27.4206 58.9449 27.4562 58.7744 27.4823C58.6109 27.5073 58.4459 27.5201 58.2807 27.5208C58.1344 27.5218 57.9883 27.5081 57.8446 27.4797C57.6766 27.4454 57.5277 27.3893 57.3979 27.3116C57.3102 27.2593 57.2295 27.1954 57.1579 27.1214C56.9258 26.8793 56.7481 26.5872 56.6375 26.266C56.6229 26.2247 56.6092 26.183 56.5965 26.1411ZM25.4386 23.3817L26 24.0716C25.8683 24.356 25.7095 24.6262 25.526 24.878C25.39 25.0655 25.2436 25.2448 25.0877 25.4149C24.6901 25.8506 24.2222 26.244 23.6842 26.5949C23.2746 26.86 22.8392 27.0797 22.3853 27.2506C22.2121 27.3165 22.0368 27.3764 21.8596 27.43C21.2939 27.5993 20.7108 27.6991 20.1225 27.7273C19.9765 27.7349 19.8304 27.7387 19.6842 27.7386C19.0909 27.7433 18.4989 27.6811 17.9186 27.5531C17.1237 27.3708 16.4338 27.0546 15.8488 26.6044C15.6194 26.4276 15.4058 26.2301 15.2105 26.014C14.237 24.9386 13.7187 23.4769 13.6558 21.6288C13.6514 21.4992 13.6491 21.3694 13.6491 21.2396C13.6435 19.9051 13.7961 18.5749 14.1035 17.2789C14.1768 16.9748 14.2592 16.6732 14.3509 16.3745C14.8187 14.8496 15.4737 13.5183 16.3158 12.3807C17.1579 11.2431 18.1813 10.3475 19.386 9.69399C20.4619 9.116 21.6462 8.78673 22.8572 8.72894C23.0391 8.7187 23.2213 8.71362 23.4035 8.7137C23.9093 8.70966 24.4132 8.77758 24.9011 8.91556C25.4017 9.05942 25.8745 9.29209 26.2982 9.60322C26.6315 9.8446 26.9098 10.1583 27.1138 10.5225C27.3177 10.8866 27.4425 11.2924 27.4793 11.7116C27.4993 11.8854 27.5092 12.0604 27.5088 12.2355C27.5178 12.8898 27.3816 13.5374 27.1106 14.1286C26.8396 14.7198 26.441 15.2388 25.9456 15.6454C25.6609 15.891 25.3563 16.1106 25.0351 16.3019C23.386 17.2943 20.7251 17.9357 17.0526 18.2261C16.9814 18.537 16.9262 18.8515 16.887 19.1683C16.8766 19.2535 16.8674 19.3388 16.8596 19.4243C16.8294 19.753 16.8121 20.0828 16.8077 20.4129C16.8072 20.4585 16.807 20.5042 16.807 20.5498C16.8035 21.0711 16.8561 21.5912 16.9639 22.1005C17.1152 22.8333 17.4277 23.5203 17.8772 24.1079C18.3939 24.7714 19.1227 25.222 19.9323 25.3783C20.2894 25.4533 20.6531 25.4899 21.0175 25.4876C21.462 25.4876 21.9006 25.4149 22.3333 25.2697C22.7661 25.1245 23.1754 24.9429 23.5614 24.7251C23.9474 24.5073 24.2982 24.2773 24.614 24.0353C24.745 23.9349 24.8753 23.8336 25.0049 23.7314C25.123 23.6382 25.2339 23.5494 25.3375 23.4649C25.3713 23.4373 25.405 23.4096 25.4386 23.3817ZM30.1754 23.0187L34.2807 2.5415L31.7895 2.21473V1.30706C31.9529 1.23493 32.118 1.1669 32.2846 1.10301C32.4598 1.03548 32.6463 0.967948 32.8442 0.900417C32.8727 0.890664 32.9013 0.880982 32.9298 0.871371C33.3626 0.726143 33.8187 0.586966 34.2982 0.45384C34.7778 0.320714 35.2515 0.211793 35.7193 0.127077C36.146 0.0498636 36.5338 0.00786847 36.8828 0.00109115C36.916 0.000405226 36.9492 4.21395e-05 36.9825 1.93822e-06L37.6842 0.39938L32.8421 25.2697H35.4035V26.2137C34.9357 26.601 34.3684 26.9156 33.7018 27.1577C33.0351 27.3997 32.386 27.5208 31.7544 27.5208C31.3464 27.5208 31.0041 27.4639 30.7274 27.3501C30.5551 27.282 30.3974 27.1797 30.2632 27.0488C30.137 26.9256 30.0305 26.7824 29.9477 26.6247C29.8424 26.42 29.788 26.1914 29.7895 25.9595C29.7895 25.4755 29.8246 25.0035 29.8947 24.5436C29.9649 24.0837 30.0585 23.5754 30.1754 23.0187ZM42.6316 11.2915L40.386 10.9284V10.0207C40.7312 9.8777 41.1219 9.72884 41.5579 9.57417C41.5649 9.57175 41.5719 9.56933 41.5789 9.56691C42.0234 9.40958 42.4795 9.2704 42.9474 9.14938C43.2296 9.07626 43.5129 9.00775 43.7972 8.94388C43.958 8.90773 44.1192 8.87336 44.2807 8.84077C44.6423 8.76791 44.9696 8.7264 45.2625 8.71624C45.3095 8.71457 45.3565 8.71372 45.4035 8.7137L46.0351 9.14938L42.7368 25.2697H45.3333V26.2137C44.9744 26.4943 44.5861 26.7321 44.1758 26.9228C43.9918 27.0091 43.8044 27.0875 43.614 27.1577C43.1924 27.3157 42.7549 27.4244 42.3098 27.4815C42.1022 27.5075 41.8933 27.5206 41.6842 27.5208C41.5125 27.5218 41.341 27.51 41.1709 27.4855C40.7547 27.4231 40.4405 27.2775 40.2281 27.0488C40.0908 26.9042 39.9804 26.7347 39.9025 26.5488C39.8266 26.3623 39.7882 26.1619 39.7895 25.9595C39.7895 25.4755 39.8246 25.0035 39.8947 24.5436C39.9649 24.0837 40.0585 23.5754 40.1754 23.0187L42.6316 11.2915ZM19.5684 11.6803C19.5484 11.7019 19.5285 11.7235 19.5088 11.7453C18.6433 12.7014 17.9064 14.3413 17.2982 16.6649C17.9606 16.6462 18.6216 16.5909 19.2782 16.4994C20.6221 16.3065 21.7282 15.9562 22.5965 15.4487C22.9609 15.2411 23.2954 14.9819 23.5905 14.6786C23.883 14.3784 24.1135 14.0201 24.2684 13.6251C24.4232 13.2302 24.499 12.8068 24.4912 12.3807C24.4912 11.8724 24.345 11.4004 24.0526 10.9647C23.7724 10.5472 23.2292 10.3186 22.4232 10.2789C22.3874 10.2772 22.3516 10.2758 22.3158 10.2749C21.3331 10.2986 20.4173 10.7671 19.5684 11.6803ZM43.2656 2.24124C43.2157 2.44619 43.1913 2.6569 43.193 2.86826C43.1924 3.00767 43.2035 3.14688 43.226 3.28434C43.2827 3.67167 43.4698 4.02581 43.7544 4.28423C43.9948 4.49942 44.2831 4.6495 44.5933 4.72101C44.8015 4.77017 45.0145 4.79417 45.2281 4.79253C45.5249 4.79253 45.7929 4.7578 46.0319 4.68833C46.3048 4.61296 46.5578 4.47483 46.7719 4.28423C47.1462 3.94537 47.3333 3.47338 47.3333 2.86826C47.334 2.70953 47.3208 2.55106 47.2937 2.39482C47.2319 2.00643 47.0486 1.64979 46.7719 1.37967C46.7107 1.32018 46.6454 1.26534 46.5765 1.21556C46.2251 0.961897 45.7757 0.835064 45.2281 0.835064C45.0648 0.834249 44.9018 0.84871 44.7411 0.87827C44.3718 0.941716 44.0287 1.11608 43.7544 1.37967C43.5147 1.61219 43.345 1.91135 43.2656 2.24124Z" fill="black" stroke="black" stroke-width="0.944882" stroke-linecap="round"/>
</g>
<g clip-path="url(#clip1_204_60)">
<path fill-rule="evenodd" clip-rule="evenodd" d="M75.7685 28V15.0388H94.1837V27.876H93.2739V15.938H76.6783V28H75.7685ZM212.424 25.7364L211.734 25.1473C211.766 25.0027 211.794 24.8574 211.819 24.7113C211.828 24.6603 211.836 24.6093 211.843 24.5581C211.875 24.3514 211.891 24.1447 211.891 23.938V22.6047V19.8915V16.3721V12.5736V9.03876V6.29457V4.86822C211.891 4.75483 211.89 4.64144 211.889 4.52806C211.885 4.20455 211.875 3.93034 211.859 3.70543C211.838 3.40568 211.817 3.15245 211.796 2.94574H212.926C212.911 3.08796 212.899 3.25209 212.89 3.43814C212.886 3.5272 212.882 3.6163 212.879 3.70543C212.868 4.00517 212.863 4.39276 212.863 4.86822V6.37209V9.33333V13.1473V17.1783V20.8062V23.4419V24.4341C213.951 23.9173 215.143 23.2351 216.439 22.3876C217.525 21.6743 218.561 20.8883 219.538 20.035C219.773 19.8303 220.006 19.6222 220.235 19.4109C221.469 18.2739 222.526 17.0439 223.404 15.7209L224 16.5271C223.059 17.8295 221.992 19.0284 220.8 20.124C219.608 21.2196 218.364 22.1964 217.067 23.0543C216.229 23.6105 215.367 24.129 214.482 24.6084C214.073 24.8291 213.659 25.0398 213.239 25.2403C213.155 25.277 213.073 25.317 212.992 25.36C212.91 25.4036 212.835 25.4485 212.767 25.4946C212.762 25.4977 212.758 25.5008 212.753 25.5039C212.632 25.5872 212.531 25.658 212.451 25.7163C212.442 25.723 212.433 25.7297 212.424 25.7364ZM147.453 1.9845H148.676C148.668 2.04223 148.661 2.10012 148.655 2.15814C148.648 2.22222 148.643 2.29023 148.638 2.36217C148.634 2.4068 148.632 2.45145 148.629 2.49612C148.619 2.69251 148.608 2.89406 148.598 3.10078C148.591 3.23795 148.586 3.37523 148.584 3.51256C148.583 3.57167 148.582 3.6308 148.582 3.68992V5.41085V7.36434V8.93023V10.7907V13.5969V16.8062V19.9535V22.5736V24.155C148.582 24.8186 148.455 25.3083 148.2 25.6242C148.177 25.6524 148.153 25.6795 148.127 25.7054C148.007 25.8243 147.863 25.9176 147.705 25.9795C147.446 26.0868 147.116 26.1489 146.714 26.1659C146.636 26.1691 146.558 26.1706 146.48 26.1705C146.182 26.1705 145.809 26.1612 145.36 26.1426C145.336 26.1416 145.312 26.1406 145.288 26.1395C144.807 26.1189 144.331 26.093 143.861 26.062C143.537 26.0407 143.246 26.0218 142.987 26.0053C142.875 25.9983 142.764 25.9913 142.653 25.9845L142.59 24.8992C143.301 25.0233 143.997 25.1163 144.677 25.1783C144.896 25.1985 145.115 25.2162 145.335 25.2313C145.727 25.258 146.067 25.2713 146.355 25.2713C146.476 25.272 146.597 25.2624 146.716 25.2425C146.977 25.1972 147.18 25.0983 147.327 24.9457C147.439 24.8279 147.521 24.6862 147.567 24.5318C147.617 24.3776 147.641 24.2003 147.641 24V22.2326V19.4574V16.2015V12.9922V10.3876V8.93023V7.42636V5.41085V3.68992C147.641 3.55586 147.636 3.42184 147.627 3.28806C147.62 3.16755 147.609 3.04124 147.594 2.90915C147.589 2.86446 147.584 2.81981 147.578 2.77519C147.544 2.49406 147.509 2.26563 147.475 2.08992C147.468 2.05468 147.461 2.01954 147.453 1.9845ZM102.372 18.5736V17.6434H130.073V18.5736H102.372ZM71 11.5039V10.6047H98.7013V11.5039H71ZM198.432 25.9225L197.522 25.3023C198.761 24.3981 199.857 23.3159 200.772 22.0915C200.802 22.0508 200.833 22.01 200.863 21.969C201.731 20.7884 202.417 19.4872 202.9 18.1079C202.973 17.9027 203.042 17.6962 203.106 17.4884C203.198 17.1807 203.278 16.8697 203.345 16.556C203.467 15.998 203.571 15.3734 203.655 14.6822C203.791 13.5762 203.885 12.4134 203.938 11.1938C203.99 9.97416 204.021 8.80103 204.032 7.67442C204.039 6.89985 204.044 6.20103 204.046 5.57798C204.047 5.31039 204.048 5.04279 204.048 4.77519C204.048 4.53397 204.04 4.29281 204.024 4.05209C204.022 4.01404 204.019 3.976 204.016 3.93798C203.995 3.66925 203.964 3.40052 203.922 3.13178H205.083C205.062 3.31783 205.046 3.50388 205.036 3.68992C205.025 3.87597 205.015 4.05685 205.004 4.23256C204.994 4.40747 204.989 4.58263 204.989 4.75783C204.989 4.76362 204.989 4.76941 204.989 4.77519C204.989 5.1015 204.987 5.42781 204.984 5.75411C204.98 6.33788 204.971 6.98832 204.957 7.70543C204.942 8.52384 204.915 9.342 204.877 10.1597C204.859 10.551 204.839 10.9422 204.816 11.3333C204.768 12.1766 204.706 13.019 204.628 13.8602C204.595 14.2223 204.558 14.5842 204.518 14.9457C204.475 15.3473 204.42 15.7476 204.355 16.1464C204.291 16.5311 204.22 16.8881 204.141 17.2174C204.094 17.4125 204.042 17.6062 203.985 17.7985C203.525 19.3695 202.808 20.8682 201.836 22.2946C200.997 23.5376 199.982 24.6553 198.822 25.6133C198.694 25.7185 198.564 25.8216 198.432 25.9225ZM166.778 14.4496V13.2713C167.029 13.292 167.322 13.3127 167.656 13.3333C167.791 13.3415 167.925 13.3486 168.059 13.3544C168.179 13.3596 168.304 13.3643 168.436 13.3687C168.573 13.3731 168.711 13.3768 168.848 13.3798C169.165 13.3869 169.521 13.3915 169.916 13.3938C170.104 13.3948 170.292 13.3954 170.48 13.3953H171.625H174.025H177.178H180.629H183.907H186.526H188.017C188.706 13.3953 189.271 13.3848 189.712 13.3637C189.801 13.3596 189.889 13.3546 189.977 13.3488C190.338 13.3251 190.64 13.3044 190.883 13.2868C190.953 13.2818 191.022 13.2766 191.091 13.2713V14.4496C190.819 14.4289 190.427 14.4083 189.915 14.3876C189.707 14.3794 189.5 14.3731 189.292 14.3687C188.92 14.3606 188.506 14.3566 188.048 14.3566H186.542H183.923H180.66H177.209H174.056H171.656H170.48C169.905 14.3566 169.381 14.3591 168.91 14.364C168.706 14.3661 168.503 14.3688 168.299 14.3721C167.885 14.3791 167.52 14.3931 167.205 14.414C167.062 14.4232 166.92 14.4351 166.778 14.4496ZM135.845 8.62015V7.47287C135.994 7.48761 136.143 7.50167 136.292 7.51504C136.526 7.53612 136.738 7.55307 136.928 7.56589C137.217 7.58553 137.597 7.59587 138.067 7.5969C138.09 7.59692 138.113 7.59692 138.136 7.5969H139.688H142.559H146.182H150.041H153.633H156.425H157.868C158.161 7.5969 158.485 7.58656 158.841 7.56589C159.196 7.54522 159.552 7.51421 159.908 7.47287V8.55814C159.573 8.53747 159.238 8.52713 158.904 8.52713H157.9H156.457H153.665H150.072H146.214H142.59H139.72H138.167C137.997 8.52708 137.827 8.52781 137.656 8.5293C137.523 8.53054 137.397 8.5323 137.278 8.53457C137.167 8.53658 137.055 8.53927 136.943 8.54263C136.609 8.55297 136.243 8.57881 135.845 8.62015ZM72.8196 4.06202V3.16279H97.0385V4.06202H72.8196ZM110.748 14.3876V3.22481H121.822V14.3876H110.748ZM76.2077 21.2403V20.3101H93.7759V21.2403H76.2077ZM76.2705 26.6977V25.7984H93.8386V26.6977H76.2705ZM116.771 18.2946L117.618 17.8915C118.247 18.7865 118.969 19.6141 119.771 20.3609C120.163 20.7276 120.57 21.0779 120.991 21.4109C122.361 22.4961 123.867 23.4522 125.508 24.2791C126.874 24.9711 128.293 25.5538 129.753 26.0217C129.984 26.0952 130.216 26.1655 130.449 26.2326C130.427 26.2476 130.405 26.264 130.384 26.2816C130.341 26.3181 130.293 26.3649 130.241 26.4217C130.237 26.4258 130.234 26.43 130.23 26.4341C130.15 26.5232 130.072 26.6148 129.998 26.7088C129.997 26.7103 129.996 26.7117 129.995 26.7132C129.921 26.8062 129.853 26.9044 129.791 27.0078C128.475 26.5875 127.19 26.0752 125.948 25.4747C125.584 25.2997 125.223 25.1182 124.865 24.9302C123.213 24.062 121.681 23.0594 120.269 21.9225C119.506 21.3115 118.788 20.6473 118.12 19.9352C117.636 19.4171 117.185 18.8692 116.771 18.2946ZM114.638 17.8605L115.454 18.2636C114.513 19.5452 113.326 20.7649 111.893 21.9225C110.46 23.0801 108.939 24.1137 107.328 25.0233C106.364 25.5707 105.372 26.0712 104.358 26.5228C103.788 26.7759 103.209 27.01 102.623 27.2248C102.581 27.1214 102.518 27.0233 102.434 26.9302C102.354 26.8411 102.277 26.7495 102.203 26.6555C102.201 26.6541 102.2 26.6526 102.199 26.6512C102.158 26.5982 102.112 26.5483 102.063 26.502C102.032 26.4723 101.999 26.4445 101.964 26.4186C103.067 26.0474 104.146 25.6082 105.193 25.1036C105.697 24.862 106.195 24.6077 106.685 24.3411C108.285 23.4729 109.786 22.4806 111.187 21.3643C111.9 20.8002 112.575 20.1913 113.208 19.5414C113.722 19.0133 114.2 18.4517 114.638 17.8605ZM115.642 27.876V14.0775H116.583V27.876H115.642ZM120.912 9.24031H111.658V13.4884H120.912V9.24031ZM120.912 4.12403H111.658V8.31008H120.912V4.12403ZM141.43 13.2403L142.277 13.6744C142.12 13.9929 141.955 14.307 141.78 14.6164C141.572 14.9877 141.34 15.3765 141.084 15.7829C140.651 16.4712 140.193 17.1447 139.714 17.8025C139.643 17.8996 139.572 17.9965 139.5 18.093C139.083 18.6564 138.654 19.2118 138.215 19.7588C138.075 19.9332 137.933 20.1066 137.79 20.2791C137.556 20.5621 137.319 20.8428 137.079 21.1209C136.86 21.3744 136.651 21.6113 136.451 21.8316C136.385 21.9036 136.319 21.9752 136.253 22.0465L135.343 21.4264C135.586 21.2141 135.821 20.9932 136.048 20.764C136.28 20.5302 136.518 20.2762 136.761 20.0019C136.843 19.9089 136.925 19.8152 137.006 19.7209C137.533 19.1061 138.037 18.4731 138.519 17.8233C138.59 17.7275 138.661 17.6313 138.732 17.5349C139.296 16.7597 139.814 16 140.285 15.2558C140.689 14.6162 141.028 14.0301 141.301 13.4974C141.344 13.4121 141.387 13.3264 141.43 13.2403ZM154.166 13.7984L155.014 13.3643C155.453 13.8605 155.923 14.4496 156.425 15.1318C156.927 15.814 157.434 16.5375 157.947 17.3023C158.459 18.0672 158.935 18.8062 159.374 19.5194C159.557 19.8152 159.737 20.1124 159.915 20.4109C160.077 20.6831 160.228 20.9416 160.367 21.1864C160.413 21.2662 160.458 21.3462 160.504 21.4264L159.562 21.9535C159.454 21.7305 159.341 21.5095 159.224 21.2905C159.094 21.0485 158.953 20.7937 158.8 20.5262C158.705 20.3604 158.609 20.1954 158.511 20.031C158.083 19.3075 157.617 18.5633 157.115 17.7985C156.613 17.0336 156.106 16.2997 155.594 15.5969C155.382 15.3054 155.165 15.0176 154.942 14.7336C154.672 14.3892 154.413 14.0775 154.166 13.7984ZM102.403 14.8527L101.87 14.1085C102.26 13.8906 102.648 13.6708 103.036 13.4493C103.73 13.0528 104.503 12.6059 105.352 12.1085C106.712 11.3127 108.092 10.5013 109.493 9.67442L109.775 10.5426C108.5 11.2868 107.213 12.0413 105.917 12.8062C104.62 13.5711 103.449 14.2532 102.403 14.8527ZM122.763 10.0465L123.328 9.45736C124.186 9.8708 125.059 10.3514 125.948 10.8992C126.836 11.447 127.673 12 128.457 12.5581C129.058 12.9854 129.576 13.3885 130.011 13.7674C130.138 13.8785 130.264 13.9923 130.387 14.1085L129.791 14.8217C129.406 14.4577 128.942 14.0664 128.399 13.6478C128.226 13.5152 128.052 13.3845 127.877 13.2558C127.103 12.6873 126.272 12.1189 125.383 11.5504C124.743 11.14 124.088 10.753 123.42 10.3901C123.203 10.2726 122.984 10.1581 122.763 10.0465ZM128.41 1.6124L129.226 2.04651C128.41 2.95607 127.49 3.88631 126.465 4.83721C125.44 5.78811 124.468 6.61499 123.548 7.31783L122.857 6.82171C123.464 6.36693 124.107 5.83463 124.787 5.22481C125.467 4.61499 126.131 3.99483 126.779 3.36434C127.048 3.10294 127.312 2.83591 127.57 2.56341C127.805 2.31473 128.021 2.07421 128.219 1.84186C128.283 1.76601 128.347 1.68952 128.41 1.6124ZM103.344 2.3876L104.003 1.82946C104.642 2.2209 105.257 2.64892 105.846 3.11132C105.933 3.17949 106.019 3.24833 106.105 3.31783C106.584 3.70411 107.048 4.10822 107.496 4.5293C107.662 4.68612 107.826 4.84562 107.987 5.00775C108.213 5.23394 108.431 5.46746 108.64 5.70791C108.843 5.94047 109.023 6.16631 109.183 6.38543C109.235 6.45762 109.286 6.5307 109.336 6.60465L108.677 7.25581C108.531 7.04004 108.375 6.83064 108.21 6.62822C108.034 6.41013 107.837 6.18439 107.621 5.95101C107.519 5.84202 107.417 5.73431 107.313 5.62791C106.829 5.13396 106.323 4.66166 105.797 4.2124C105.671 4.10423 105.543 3.99725 105.415 3.89147C104.921 3.48331 104.408 3.09799 103.878 2.73674C103.702 2.61726 103.524 2.50086 103.344 2.3876ZM91.5799 4.49612L92.4583 4.83721C92.04 5.7261 91.559 6.677 91.0152 7.68992C90.821 8.05226 90.6214 8.41178 90.4166 8.76837C90.0916 9.33375 89.7787 9.84248 89.478 10.2946L88.725 9.95349C88.8915 9.71607 89.0507 9.47379 89.2025 9.22698C89.3855 8.93054 89.5714 8.60941 89.7603 8.26357C90.1159 7.6124 90.4557 6.95607 90.7799 6.29457C90.9151 6.01912 91.046 5.74157 91.1723 5.46202C91.2878 5.20589 91.3931 4.96072 91.4883 4.72651C91.5194 4.64994 91.5499 4.57314 91.5799 4.49612ZM77.494 4.86822L78.2782 4.58915C78.7666 5.28242 79.1956 6.01478 79.5607 6.7786C79.6489 6.96201 79.7339 7.14695 79.8155 7.33333C80.1315 8.05499 80.3718 8.70429 80.5364 9.28124C80.5972 9.49291 80.6497 9.70682 80.6939 9.92248L79.7841 10.2636C79.7189 9.92941 79.6369 9.59867 79.5384 9.27256C79.386 8.76114 79.1855 8.20775 78.9371 7.6124C78.6486 6.91652 78.3149 6.23986 77.9379 5.58667C77.7967 5.34316 77.6486 5.10358 77.494 4.86822ZM115.956 0L116.865 0.310078C116.657 0.906852 116.445 1.50222 116.228 2.09612C116.221 2.11576 116.214 2.1354 116.207 2.15504C116.105 2.43574 115.997 2.71435 115.883 2.9907C115.776 3.24992 115.669 3.4924 115.562 3.71814C115.547 3.75014 115.532 3.78208 115.517 3.81395L114.795 3.53488C114.955 3.17085 115.118 2.74326 115.285 2.25209C115.337 2.0962 115.388 1.93981 115.438 1.78295C115.516 1.53771 115.592 1.29181 115.665 1.04527C115.78 0.658501 115.877 0.310078 115.956 0ZM84.333 3.53488V0H85.2741V3.53488H84.333Z" fill="black" stroke="black" stroke-width="0.944882" stroke-linecap="round"/>
</g>
<defs>
<clipPath id="clip0_204_60">
<rect width="64" height="35" fill="white"/>
</clipPath>
<clipPath id="clip1_204_60">
<rect width="153" height="28" fill="white" transform="translate(71)"/>
</clipPath>
</defs>
</svg>
